<svg width="24" height="24" viewBox="0 0 24 24" fill="none" xmlns="http://www.w3.org/2000/svg">
<path fill-rule="evenodd" clip-rule="evenodd" d="M13.7143 0C12.7675 0 12 0.767511 12 1.71429C12 2.66105 12.7675 3.42857 13.7143 3.42857H16.2857C16.7591 3.42857 17.1429 3.81233 17.1429 4.28571V14.5714H14.5715C14.2248 14.5714 13.9122 14.7803 13.7796 15.1006C13.6469 15.4209 13.7202 15.7895 13.9654 16.0347L18.251 20.3205C18.5858 20.6551 19.1285 20.6551 19.4633 20.3205L23.7491 16.0347C23.9942 15.7895 24.0674 15.4209 23.9347 15.1006C23.802 14.7803 23.4895 14.5714 23.1429 14.5714H20.5715V4.28571C20.5715 1.91878 18.6527 0 16.2857 0H13.7143ZM5.74897 3.67963C5.41424 3.34488 4.87153 3.34488 4.5368 3.67963L0.251077 7.96534C0.00593521 8.21049 -0.0673982 8.57914 0.065271 8.89944C0.197941 9.21974 0.510486 9.42857 0.857168 9.42857H3.4286V19.7143C3.4286 22.0812 5.34738 24 7.71431 24H10.2857C11.2325 24 12 23.2325 12 22.2857C12 21.3389 11.2325 20.5714 10.2857 20.5714H7.71431C7.24093 20.5714 6.85717 20.1876 6.85717 19.7143V9.42857H9.4286C9.77528 9.42857 10.0878 9.21974 10.2205 8.89944C10.3532 8.57914 10.2798 8.21049 10.0347 7.96534L5.74897 3.67963Z" fill="#051B2F"/>
</svg>
