<svg width="46" height="46" viewBox="0 0 46 46" fill="none" xmlns="http://www.w3.org/2000/svg">
<g clip-path="url(#clip0_82_1237)">
<path opacity="0.98" d="M23 46C35.7025 46 46 35.7025 46 23C46 10.2975 35.7025 0 23 0C10.2975 0 0 10.2975 0 23C0 35.7025 10.2975 46 23 46Z" fill="#111D4C"/>
<path d="M36.9381 18.5185V31.0496L22.9999 39.0953L9.05403 31.0496V14.9504L22.9999 6.89693L33.712 13.0848L35.3289 12.1519L22.9999 5.03125L7.43713 14.0176V31.9824L22.9999 40.9688L38.5628 31.9824V17.5856L36.9381 18.5185Z" fill="url(#paint0_linear_82_1237)"/>
<path d="M19.0975 31.0575H16.7655V23.2372H24.5391C25.2747 23.2291 25.9773 22.9316 26.4952 22.4094C27.0132 21.8871 27.3046 21.1819 27.3066 20.4464C27.3107 20.0828 27.2405 19.722 27.1002 19.3865C26.9597 19.0509 26.7523 18.7477 26.4903 18.4953C26.2367 18.2348 25.9334 18.0282 25.598 17.8879C25.2628 17.7476 24.9025 17.6766 24.5391 17.679H16.7655V15.3003H24.5469C25.9092 15.3084 27.2134 15.8532 28.1768 16.8165C29.14 17.7799 29.6848 19.0842 29.693 20.4464C29.7013 21.4893 29.3834 22.5085 28.7835 23.3615C28.2315 24.1777 27.4535 24.8152 26.5447 25.196C25.6448 25.4815 24.7058 25.6232 23.7617 25.6159H19.0975V31.0575Z" fill="url(#paint1_linear_82_1237)"/>
<path d="M29.6387 30.863H26.9178L24.8191 27.2016C25.6494 27.1508 26.4685 26.9833 27.2522 26.7041L29.6387 30.863Z" fill="url(#paint2_linear_82_1237)"/>
<path d="M35.3134 15.9143L36.9225 16.8083L38.5317 15.9143V14.0253L36.9225 13.0925L35.3134 14.0253V15.9143Z" fill="url(#paint3_linear_82_1237)"/>
</g>
<defs>
<linearGradient id="paint0_linear_82_1237" x1="32.8201" y1="-5.02433" x2="-1.08912" y2="5.14771" gradientUnits="userSpaceOnUse">
<stop stop-color="#C200FB"/>
<stop offset="0.489658" stop-color="#3772FF"/>
<stop offset="0.489758" stop-color="#3773FE"/>
<stop offset="1" stop-color="#5AC4BE"/>
</linearGradient>
<linearGradient id="paint1_linear_82_1237" x1="33.1215" y1="-6.08494" x2="-0.963012" y2="3.08967" gradientUnits="userSpaceOnUse">
<stop stop-color="#C200FB"/>
<stop offset="0.489658" stop-color="#3772FF"/>
<stop offset="0.489758" stop-color="#3773FE"/>
<stop offset="1" stop-color="#5AC4BE"/>
</linearGradient>
<linearGradient id="paint2_linear_82_1237" x1="30.8882" y1="-0.211097" x2="-0.226493" y2="16.4998" gradientUnits="userSpaceOnUse">
<stop stop-color="#C200FB"/>
<stop offset="0.489658" stop-color="#3772FF"/>
<stop offset="0.489758" stop-color="#3773FE"/>
<stop offset="1" stop-color="#5AC4BE"/>
</linearGradient>
<linearGradient id="paint3_linear_82_1237" x1="32.8201" y1="-5.02417" x2="-1.08911" y2="5.14802" gradientUnits="userSpaceOnUse">
<stop stop-color="#C200FB"/>
<stop offset="0.489658" stop-color="#3772FF"/>
<stop offset="0.489758" stop-color="#3773FE"/>
<stop offset="1" stop-color="#5AC4BE"/>
</linearGradient>
<clipPath id="clip0_82_1237">
<rect width="46" height="46" fill="white"/>
</clipPath>
</defs>
</svg>
