<svg width="60" height="60" viewBox="0 0 60 60" fill="none" xmlns="http://www.w3.org/2000/svg">
<rect width="60" height="60" rx="30" fill="url(#paint0_linear_56_694)"/>
<g clip-path="url(#clip0_56_694)">
<path d="M18.5 22.5C18.5 23.5609 18.9214 24.5783 19.6716 25.3284C20.4217 26.0786 21.4391 26.5 22.5 26.5C23.5609 26.5 24.5783 26.0786 25.3284 25.3284C26.0786 24.5783 26.5 23.5609 26.5 22.5C26.5 21.4391 26.0786 20.4217 25.3284 19.6716C24.5783 18.9214 23.5609 18.5 22.5 18.5C21.4391 18.5 20.4217 18.9214 19.6716 19.6716C18.9214 20.4217 18.5 21.4391 18.5 22.5Z" fill="#F6F2FF"/>
<path d="M33.5 37.5C33.5 38.5609 33.9214 39.5783 34.6716 40.3284C35.4217 41.0786 36.4391 41.5 37.5 41.5C38.5609 41.5 39.5783 41.0786 40.3284 40.3284C41.0786 39.5783 41.5 38.5609 41.5 37.5C41.5 36.4391 41.0786 35.4217 40.3284 34.6716C39.5783 33.9214 38.5609 33.5 37.5 33.5C36.4391 33.5 35.4217 33.9214 34.6716 34.6716C33.9214 35.4217 33.5 36.4391 33.5 37.5Z" fill="#F6F2FF"/>
<path d="M40.41 19.59C40.0353 19.2175 39.5284 19.0084 39 19.0084C38.4716 19.0084 37.9647 19.2175 37.59 19.59L19.59 37.59C19.2175 37.9647 19.0084 38.4716 19.0084 39C19.0084 39.5284 19.2175 40.0353 19.59 40.41C19.9647 40.7825 20.4716 40.9916 21 40.9916C21.5284 40.9916 22.0353 40.7825 22.41 40.41L40.41 22.41C40.7825 22.0353 40.9916 21.5284 40.9916 21C40.9916 20.4716 40.7825 19.9647 40.41 19.59Z" fill="#F6F2FF"/>
</g>
<defs>
<linearGradient id="paint0_linear_56_694" x1="-4.47035e-07" y1="30" x2="60" y2="30" gradientUnits="userSpaceOnUse">
<stop stop-color="#6D37FE"/>
<stop offset="1" stop-color="#00FFFF"/>
</linearGradient>
<clipPath id="clip0_56_694">
<rect width="24" height="24" fill="white" transform="translate(18 18)"/>
</clipPath>
</defs>
</svg>
