<svg width="61" height="60" viewBox="0 0 61 60" fill="none" xmlns="http://www.w3.org/2000/svg">
<rect x="0.5" width="60" height="60" rx="30" fill="url(#paint0_linear_56_709)"/>
<g clip-path="url(#clip0_56_709)">
<path fill-rule="evenodd" clip-rule="evenodd" d="M37.7858 27.4286C38.7277 27.4285 39.648 27.1464 40.428 26.6185C41.2081 26.0905 41.8121 25.3411 42.1622 24.4667C42.5123 23.5923 42.5925 22.633 42.3923 21.7127C42.1922 20.7923 41.721 19.9529 41.0394 19.3029C40.3578 18.6528 39.4971 18.2218 38.5683 18.0654C37.6395 17.9091 36.6851 18.0345 35.8283 18.4256C34.9714 18.8167 34.2513 19.4554 33.7609 20.2596C33.2705 21.0637 33.0321 21.9963 33.0767 22.9371L26.2195 26.3657C25.5301 25.7958 24.6929 25.4338 23.8054 25.3219C22.918 25.21 22.0171 25.3529 21.2078 25.7339C20.3985 26.1148 19.7143 26.7182 19.2351 27.4734C18.7559 28.2287 18.5015 29.1047 18.5015 29.9991C18.5015 30.8936 18.7559 31.7696 19.2351 32.5249C19.7143 33.2801 20.3985 33.8834 21.2078 34.2644C22.0171 34.6454 22.918 34.7883 23.8054 34.6764C24.6929 34.5645 25.5301 34.2025 26.2195 33.6326L33.0767 37.0611C33.0247 38.1588 33.3578 39.24 34.0184 40.1182C34.6789 40.9963 35.6255 41.616 36.6945 41.8704C37.7635 42.1247 38.8878 41.9977 39.873 41.5111C40.8583 41.0246 41.6426 40.2092 42.0905 39.2058C42.5384 38.2024 42.6218 37.074 42.3261 36.0157C42.0305 34.9574 41.3744 34.0356 40.4713 33.4096C39.5682 32.7836 38.4748 32.4928 37.38 32.5873C36.2853 32.6819 35.2579 33.1559 34.4755 33.9274L27.8858 30.6343C27.9424 30.2133 27.9424 29.7867 27.8858 29.3657L34.4772 26.0709C35.3292 26.9109 36.4984 27.4286 37.7875 27.4286H37.7858Z" fill="#F6F2FF"/>
</g>
<defs>
<linearGradient id="paint0_linear_56_709" x1="0.5" y1="30" x2="60.5" y2="30" gradientUnits="userSpaceOnUse">
<stop stop-color="#6D37FE"/>
<stop offset="1" stop-color="#00FFFF"/>
</linearGradient>
<clipPath id="clip0_56_709">
<rect width="24" height="24" fill="white" transform="translate(18.5 18)"/>
</clipPath>
</defs>
</svg>
