<svg width="60" height="60" viewBox="0 0 60 60" fill="none" xmlns="http://www.w3.org/2000/svg">
<rect width="60" height="60" rx="30" fill="url(#paint0_linear_56_704)"/>
<g clip-path="url(#clip0_56_704)">
<path d="M29.9982 18L30.0366 18.0024L30.1399 18.0084C30.2833 18.025 30.4225 18.0673 30.5509 18.1332L30.677 18.2076L30.7936 18.2988L30.8128 18.3168L31.1096 18.5688C33.5334 20.5795 36.5968 21.6592 39.7474 21.6132L40.1583 21.6012C40.427 21.589 40.692 21.6671 40.9109 21.8231C41.1299 21.9791 41.2901 22.2039 41.3659 22.4616C41.9563 24.4675 42.137 26.5714 41.8972 28.6485C41.6574 30.7255 41.0019 32.7331 39.9699 34.5522C38.9378 36.3712 37.5501 37.9645 35.8894 39.2373C34.2286 40.5102 32.3285 41.4366 30.3021 41.9616C30.1044 42.0128 29.8968 42.0128 29.699 41.9616C27.6725 41.4367 25.7723 40.5104 24.1114 39.2376C22.4505 37.9648 21.0627 36.3716 20.0305 34.5525C18.9983 32.7335 18.3428 30.7257 18.1029 28.6487C17.863 26.5716 18.0436 24.4676 18.634 22.4616C18.7099 22.2039 18.8701 21.9791 19.089 21.8231C19.3079 21.6671 19.5729 21.589 19.8416 21.6012C23.2728 21.7578 26.6302 20.5742 29.2027 18.3012L29.258 18.258L29.3217 18.2088C29.4028 18.1535 29.4903 18.1084 29.5824 18.0744L29.6725 18.0468L29.7158 18.0348C29.7633 18.0231 29.8114 18.0143 29.86 18.0084L29.9633 18.0024L29.9982 18ZM30.0006 20.7552L29.7891 20.9172C27.2509 22.8088 24.197 23.8852 21.0323 24.0036L20.7151 24.0108L20.6382 24.3828C20.0774 27.3146 20.528 30.3497 21.9166 32.9928L22.1209 33.3696C23.8177 36.3595 26.6153 38.5706 29.9189 39.5328L30.0006 39.5556V20.7552Z" fill="#F6F2FF"/>
</g>
<defs>
<linearGradient id="paint0_linear_56_704" x1="-4.47035e-07" y1="30" x2="60" y2="30" gradientUnits="userSpaceOnUse">
<stop stop-color="#6D37FE"/>
<stop offset="1" stop-color="#00FFFF"/>
</linearGradient>
<clipPath id="clip0_56_704">
<rect width="24" height="24" fill="white" transform="translate(18 18)"/>
</clipPath>
</defs>
</svg>
